<?xml version="1.0" encoding="utf-8"?>
<!-- Generator: Adobe Illustrator 18.1.1, SVG Export Plug-In . SVG Version: 6.00 Build 0)  -->
<svg version="1.1" id="图层_1" x="0px" y="0px" viewBox="-96 359 419 75">
<g>
	<title>background</title>
	<rect id="canvas_background" x="-179" y="-7.9" fill="none" width="597.3" height="843.9"/>
</g>
<g>
	<title>Layer 1</title>
	<text id="svg_130" x="30.048" y="419.578" text-anchor="middle" fill="#424141" font-family="'ArialMT'" font-size="8.1582">32</text>
	<path id="svg_132" fill="#ED4B56" d="M306.4,403H113v-15.9h193.4c3.2,0,5.7,3.6,5.7,7.9l0,0C312.2,399.4,309.6,403,306.4,403
		L306.4,403z"/>
	<polygon id="svg_135" fill="#19B797" points="34.5,404.2 30.7,410.9 38.3,410.9 	"/>
	<path id="svg_7" fill="#19B797" d="M-77.2,387.1h193.4V403H-77.2c-3.2,0-5.7-3.6-5.7-7.9l0,0
		C-83.1,390.7-80.5,387.1-77.2,387.1L-77.2,387.1z"/>
	<text id="svg_136" x="301.3634" y="397.578" text-anchor="middle" fill="#FCFAFA" font-family="'ArialMT'" font-size="8.1582">100</text>
	<text id="svg_137" x="116.7" y="397.578" text-anchor="middle" fill="#FCFAFA" font-family="'ArialMT'" font-size="8.1582">50</text>
	<text id="svg_138" x="-76.6366"  y="397.578" text-anchor="middle" fill="#FCFAFA" font-family="'ArialMT'" font-size="8.1582">0</text>
</g>
</svg>
